<?xml version="1.0" standalone="no"?>
<!DOCTYPE svg PUBLIC "-//W3C//DTD SVG 20010904//EN"
 "http://www.w3.org/TR/2001/REC-SVG-20010904/DTD/svg10.dtd">
<svg version="1.0" xmlns="http://www.w3.org/2000/svg"
 width="585.000000pt" height="585.000000pt" viewBox="0 0 585.000000 585.000000"
 preserveAspectRatio="xMidYMid meet">
<metadata>
Created by potrace 1.11, written by Peter Selinger 2001-2013
</metadata>
<g transform="translate(0.000000,585.000000) scale(0.100000,-0.100000)"
fill="#000000" stroke="none">
<path d="M4388 4913 c6 -2 18 -2 25 0 6 3 1 5 -13 5 -14 0 -19 -2 -12 -5z"/>
<path d="M4448 4913 c7 -3 16 -2 19 1 4 3 -2 6 -13 5 -11 0 -14 -3 -6 -6z"/>
<path d="M4317 4903 c-9 -2 -15 -9 -12 -14 4 -5 1 -9 -5 -9 -6 0 -8 -5 -4 -11
4 -7 1 -10 -7 -7 -8 3 -13 11 -11 18 4 17 -39 6 -114 -30 -91 -44 -275 -209
-274 -246 0 -5 39 -26 86 -46 212 -92 444 -257 644 -458 146 -146 251 -278
343 -432 32 -54 62 -98 67 -98 26 0 141 103 187 169 49 68 65 100 44 87 -9 -6
-3 31 8 49 4 6 6 71 6 145 0 114 -3 140 -19 170 -11 19 -19 45 -17 58 1 12 -3
22 -9 22 -6 0 -9 4 -5 10 5 8 -51 98 -82 128 -7 7 -16 24 -19 38 -3 13 -12 24
-20 24 -8 0 -14 4 -14 9 0 13 -163 171 -176 171 -3 0 -10 5 -17 10 -67 56
-149 109 -177 115 -19 4 -44 15 -55 25 -11 10 -36 21 -55 25 -19 4 -39 11 -45
15 -9 8 -98 19 -190 25 -55 4 -55 4 -55 13 0 5 10 14 23 20 22 11 7 14 -26 5z"/>
<path d="M818 4546 c-137 -60 -292 -194 -387 -334 -199 -294 -201 -610 -7
-854 46 -58 148 -137 209 -163 l35 -14 32 90 c41 115 122 279 196 399 172 278
364 478 688 715 l27 20 -37 29 c-21 16 -47 31 -58 32 -12 1 -25 3 -29 3 -5 1
-5 6 -1 13 5 7 2 9 -9 5 -14 -5 -35 0 -109 26 -15 5 -25 14 -22 19 4 6 -3 5
-14 -1 -20 -11 -82 -8 -103 4 -5 4 -31 9 -57 12 -26 2 -51 9 -57 14 -16 16
-85 11 -85 -6 0 -17 -26 -20 -36 -4 -3 6 -17 9 -30 6 -13 -2 -24 0 -24 5 0 5
-4 6 -10 3 -5 -3 -10 -1 -10 4 0 17 -20 13 -102 -23z m89 -2 c-3 -3 -12 -4
-19 -1 -8 3 -5 6 6 6 11 1 17 -2 13 -5z"/>
<path d="M1278 4543 c7 -3 16 -2 19 1 4 3 -2 6 -13 5 -11 0 -14 -3 -6 -6z"/>
<path d="M5276 3853 c-6 -14 -5 -15 5 -6 7 7 10 15 7 18 -3 3 -9 -2 -12 -12z"/>
<path d="M3570 3261 c-36 -12 -112 -49 -134 -66 -10 -7 -15 -19 -11 -25 3 -6
1 -9 -6 -8 -15 4 -77 -76 -85 -110 -14 -58 -40 -66 -86 -26 -34 27 -71 29 -76
2 -5 -25 51 -81 94 -93 l38 -10 17 -105 c21 -128 36 -175 53 -161 8 7 12 4 12
-9 0 -10 -4 -16 -8 -14 -25 15 57 -125 105 -181 43 -50 104 -81 199 -101 95
-20 177 -12 282 28 148 57 216 154 219 311 2 75 -19 181 -33 172 -5 -3 -6 5
-2 17 3 14 1 19 -6 14 -8 -4 -10 -2 -6 8 7 18 -33 99 -46 91 -5 -3 -12 0 -16
6 -4 8 -3 9 4 5 26 -16 9 16 -37 72 -58 69 -126 122 -207 159 -45 21 -76 27
-148 29 -50 2 -102 0 -116 -5z m182 -14 c7 -7 29 -19 48 -25 32 -11 33 -10 16
3 -26 20 -9 18 31 -3 l32 -17 -100 -2 -99 -2 0 30 c0 25 4 29 29 29 16 0 36
-6 43 -13z m-197 -17 c-11 -5 -15 -9 -8 -9 15 -1 5 -31 -9 -31 -6 0 -8 7 -4
15 3 10 -1 15 -12 16 -14 0 -14 2 3 9 11 5 27 9 35 9 9 0 8 -4 -5 -9z m-50
-20 c3 -5 2 -17 -3 -27 -9 -15 -11 -14 -20 4 -15 27 7 49 23 23z m301 -25 c18
-14 18 -14 0 -15 -12 0 -16 -5 -12 -15 4 -10 -1 -15 -14 -15 -16 0 -20 7 -20
30 0 33 15 38 46 15z m-193 -2 c-7 -2 -19 -2 -25 0 -7 3 -2 5 12 5 14 0 19 -2
13 -5z m317 -8 c0 -2 -6 -5 -13 -8 -8 -3 -14 1 -14 8 0 7 6 11 14 8 7 -3 13
-6 13 -8z m15 -33 c-3 -3 -11 0 -18 7 -9 10 -8 11 6 5 10 -3 15 -9 12 -12z
m50 -42 c8 7 12 5 12 -3 0 -19 -34 -18 -42 1 -5 13 -4 14 6 5 8 -8 17 -9 24
-3z m30 -58 c-11 -9 -15 -11 -8 -3 6 7 9 21 6 30 -5 13 -3 14 8 3 11 -10 10
-15 -6 -30z m-288 -59 c-3 -10 -5 -2 -5 17 0 19 2 27 5 18 2 -10 2 -26 0 -35z
m53 -29 c0 -14 -3 -14 -15 -4 -8 7 -15 14 -15 16 0 2 7 4 15 4 8 0 15 -7 15
-16z m302 -24 c-20 -20 -25 -19 -17 2 3 8 12 15 20 15 12 0 11 -4 -3 -17z m70
-118 c3 -11 0 -19 -7 -19 -7 0 -10 8 -7 19 2 10 6 18 7 18 1 0 5 -8 7 -18z
m-695 -94 c-3 -8 -6 -5 -6 6 -1 11 2 17 5 13 3 -3 4 -12 1 -19z m700 -50 c-3
-8 -6 -5 -6 6 -1 11 2 17 5 13 3 -3 4 -12 1 -19z"/>
<path d="M1910 3068 c-123 -43 -244 -134 -295 -223 -45 -76 -87 -223 -87 -301
0 -329 341 -505 659 -341 47 25 116 98 140 147 27 59 60 180 68 255 6 55 -6
190 -20 227 -5 11 1 18 17 23 33 10 58 35 58 57 0 26 -25 33 -68 20 -35 -11
-36 -10 -101 51 -52 48 -80 66 -126 81 -94 29 -169 31 -245 4z"/>
<path d="M3027 2983 c-15 -14 -6 -43 19 -62 31 -25 67 -27 84 -6 16 19 -2 43
-47 62 -36 15 -47 16 -56 6z"/>
<path d="M2870 2613 c-99 -15 -154 -51 -143 -92 12 -47 135 -66 225 -36 47 17
88 48 88 67 0 7 -6 4 -13 -6 -11 -16 -22 -17 -65 -11 -29 4 -59 13 -67 21 -7
8 -26 15 -42 15 -17 1 -21 3 -10 6 9 2 15 9 12 14 -6 9 15 11 105 11 41 -1 42
0 15 8 -32 8 -66 10 -105 3z"/>
<path d="M3320 2328 c0 -21 -24 -30 -39 -15 -9 9 -10 8 -5 -7 5 -13 4 -17 -3
-13 -6 4 -16 1 -22 -7 -23 -28 -92 -38 -175 -27 -141 20 -188 15 -298 -29
-119 -48 -164 -51 -201 -14 -14 14 -27 35 -29 47 -2 16 -10 22 -28 22 -22 0
-25 -5 -28 -38 -4 -51 19 -84 75 -109 65 -29 123 -21 225 30 99 50 157 60 218
39 70 -24 153 -31 195 -17 50 17 112 74 120 111 4 17 4 33 1 36 -3 4 -6 -1 -6
-9z"/>
<path d="M4831 1951 c-20 -21 -50 -55 -67 -75 -22 -26 -39 -36 -59 -36 -45 0
-114 -39 -144 -81 -15 -20 -43 -79 -61 -131 -31 -87 -38 -98 -114 -173 -224
-222 -622 -346 -1296 -404 -365 -32 -796 -40 -995 -20 l-109 12 -29 -34 c-15
-19 -90 -112 -165 -208 -215 -274 -251 -303 -474 -387 -141 -54 -178 -75 -178
-102 0 -8 -11 -27 -25 -44 -28 -33 -30 -46 -13 -83 15 -33 97 -71 171 -80 55
-6 57 -8 57 -35 0 -38 24 -60 67 -60 80 0 454 114 523 160 29 19 46 26 49 18
5 -14 125 407 146 512 9 41 19 108 23 149 l7 75 60 -55 c106 -98 182 -156 314
-243 260 -171 358 -200 547 -160 78 16 149 39 89 29 -147 -24 -180 -26 -249
-14 -76 12 -186 55 -199 76 -4 7 -16 13 -25 13 -9 1 -27 6 -40 14 -20 11 -21
14 -8 25 8 7 30 12 48 11 52 -3 58 -1 58 18 0 28 32 52 58 45 18 -4 22 -1 22
17 0 21 3 22 45 17 25 -4 47 -2 50 3 4 6 59 10 126 10 73 0 119 4 119 10 0 6
48 9 130 8 71 -2 130 -6 130 -10 0 -4 20 -6 44 -4 26 1 42 -2 39 -7 -3 -5 5
-6 18 -3 20 6 21 5 7 -4 -10 -6 -18 -16 -18 -23 -1 -17 -99 -86 -193 -134 -45
-23 -78 -42 -73 -42 23 -2 215 110 326 189 69 49 129 88 135 87 5 -2 24 -38
42 -80 62 -148 104 -178 255 -179 111 -1 220 28 367 98 124 58 241 138 501
341 249 193 288 218 415 268 89 34 136 69 135 99 -1 6 -7 -1 -15 -16 -20 -35
-54 -46 -72 -22 -28 38 -3 103 40 105 l22 0 -22 9 c-22 9 -23 40 -2 40 5 0 9
6 9 13 0 6 14 30 30 51 17 22 30 49 29 60 0 12 -3 15 -6 8 -4 -10 -9 -8 -20 7
-8 12 -19 21 -26 21 -8 0 -8 -3 1 -12 20 -20 14 -63 -14 -89 -23 -22 -27 -23
-52 -8 -48 26 -38 102 14 115 24 6 24 7 6 18 -11 6 -30 17 -43 25 -24 14 -24
14 -5 -8 20 -22 11 -28 -14 -8 -17 14 -24 50 -7 40 5 -3 7 -1 3 5 -3 6 -2 13
4 17 5 3 9 21 9 38 l-1 32 -7 -29 c-3 -16 -18 -38 -32 -48 -22 -17 -30 -18
-48 -8 -26 13 -43 53 -34 77 10 29 35 53 55 53 19 0 19 1 0 28 -11 15 -22 38
-23 52 -3 20 -10 26 -39 28 -62 6 -132 -24 -101 -43 13 -7 41 -64 41 -82 0
-24 -20 -13 -34 20 l-13 32 4 -46 c4 -38 1 -51 -16 -68 -30 -30 -75 -28 -89 4
-27 58 0 115 54 115 l27 0 -32 30 c-40 39 -42 65 -3 56 24 -5 24 -4 -8 14 -19
10 -55 19 -79 20 -38 0 -48 -5 -80 -39z m-101 -171 c0 -5 -4 -10 -10 -10 -5 0
-10 5 -10 10 0 6 5 10 10 10 6 0 10 -4 10 -10z m50 -14 c0 -2 -11 -6 -24 -8
-19 -4 -22 -1 -19 13 4 15 9 16 24 8 10 -5 19 -11 19 -13z m20 -55 c17 -33 11
-71 -15 -97 -31 -31 -61 -28 -87 7 -33 44 5 109 64 109 17 0 31 -7 38 -19z
m306 -117 c20 -10 45 -34 59 -59 64 -108 -4 -245 -120 -245 -48 0 -123 43
-152 86 -40 61 -1 183 69 217 42 21 101 21 144 1z m-1843 -831 c-7 -2 -21 -2
-30 0 -10 3 -4 5 12 5 17 0 24 -2 18 -5z m60 -10 c-7 -2 -21 -2 -30 0 -10 3
-4 5 12 5 17 0 24 -2 18 -5z m-678 -123 c-28 -12 -57 -12 -50 0 3 6 21 10 38
9 27 0 29 -2 12 -9z"/>
<path d="M5312 1717 c6 -8 23 -11 37 -9 23 5 24 6 6 13 -11 4 -28 8 -38 8 -14
1 -15 -2 -5 -12z"/>
<path d="M5330 1666 c0 -9 5 -16 10 -16 6 0 10 4 10 9 0 6 -4 13 -10 16 -5 3
-10 -1 -10 -9z"/>
</g>
</svg>
